English summary:
WikiRebels - The Documentary, as broadcasted by The Finnish Broadcasting Company
(YLE) at 2011-01-12. Narrated is Swedish. Fixed Finnish subtitles. Produced by
SVT Television. 
http://svtplay.se/v/2264028 
http://www.imdb.com/title/tt1805516/


Ulkolinja: Wikileaks, salaisuuden voima
YLE TV1 - keskiviikko 12.1.2011 klo 22.00

Ruotsalainen dokumentti kertoo miten Wikileaks, maailman vartioiduimpien
salaisuuksien paljastaja, syntyi ja kuinka organisaatio toimii kulissiensa
takana. Entä millainen on mystinen Julian Assange, ristiriitojen mies.

Kesto             : 57 minuuttia
Genre             : dokumentti
Tuotantovuosi     : 2010
Linkit            : http://yle.fi/ohjelmat/941259
                    http://areena.yle.fi/video/1607506
Tuotantoyhtiö     : SVT Television
Puhuttu kieli     : Useita, enimmäkseen englanti
Selostus          : Ruotsi
Tekstitys         : Suomi - kiinteästi kuvassa

Tags:
Wikileaks, Julian Assange, Mendax, media, press, journalism, speech, freedom,
internet, information, source, protection, leak, war, intelligence, politics,
diplomacy, hacking, Iraq, Afganistan, Cuba, USA, Sweden, Iceland, Australia,
Kenya, Germany, Belgium, Hillary Clinton, Pentagon, military, scientology,
censorship, The Guardian, Daniel Arap Moi, police, Chaos Computer Club, CCC,
Daniel Domscheit-Berg, Daniel Schmitt, OpenLeaks, Pirate Bay, Mikael Wiborg,
PRQ, Guantanamo Bay, terror, terrorism, Trafigura, Sarah Palin, Washington Post,
IMMI, Smári McCarthy, banking system, Kristinn Hrafnsson, Kaupthing, Herbert
Snorrason, Birgitta Jónsdóttir, Rop Gongrip, Bradley Manning, Adrian Lamo,
Reuters, Namir Noor Eldeen, Saeed Chmagh, Collateral Murder, Der Spiegel, New
York Times, War Logs, Geoff Morell, Robert Gates, Michael Mullen, Iain Overton,
TBIJ, James Ball, Mike Rogers, Christian Whiton, Moneybookers, Piratpartiet,
Pirate Party, Cable Gate

Technical info:

General
Name             : Wikirebels-finsub-YLE-TV1-20110112-Wikileaks-salaisuuden-voima.mp4
Format           : MPEG-4
Format profile   : Base Media / Version 2
Codec ID         : mp42
File size        : 826 MiB
Duration         : 1h 3mn
Overall bit rate : 1 815 Kbps

Video
ID                        : 1
Format                    : AVC
Format/Info               : Advanced Video Codec
Format profile            : Baseline@L2.1
Format settings, CABAC    : No
Format settings, ReFrames : 3 frames
Codec ID                  : avc1
Codec ID/Info             : Advanced Video Coding
Duration                  : 1h 3mn
Bit rate mode             : Variable
Bit rate                  : 1 650 Kbps
Width                     : 480 pixels
Height                    : 272 pixels
Display aspect ratio      : 16:9
Frame rate mode           : Constant
Frame rate                : 25.000 fps
Resolution                : 8 bits
Colorimetry               : 4:2:0
Scan type                 : Progressive
Bits/(Pixel*Frame)        : 0.506
Stream size               : 752 MiB (91%)
Writing library           : x264 core 107

Audio
ID                        : 2
Format                    : AAC
Format/Info               : Advanced Audio Codec
Format version            : Version 4
Format profile            : LC
Format settings, SBR      : No
Codec ID                  : 40
Duration                  : 1h 3mn
Bit rate mode             : Variable
Bit rate                  : 160 Kbps
Maximum bit rate          : 240 Kbps
Channel(s)                : 2 channels
Channel positions         : L R
Sampling rate             : 48.0 KHz
Stream size               : 72.8 MiB (9%)


We, the people, will fight back. We do not forgive. We do not forget. Expect us.
